# xmcd
# 
# Track frame offsets:
#     150
#     27053
#     42266
#     61942
#     85325
#     101697
#     117427
#     137281
#     155356
#     175799
#     194555
# 
# Disc length: 2799
# 
# Revision: 7
# Processed by: cddbd v1.5.2PL0 Copyright (c) Steve Scherf et al.
# Submitted via: fre:ac v1.0.31
# 
DISCID=890aed0b
DTITLE=Levon Helm - Electric Dirt
DYEAR=2009
DGENRE=Rock/Pop
TTITLE0=Tennessee Jed
TTITLE1=Move Along Train
TTITLE2=Growin' Trade
TTITLE3=Golden Bird
TTITLE4=Stuff You Gotta Watch
TTITLE5=White Dove
TTITLE6=Kingfish
TTITLE7=You Can't Lose What You Ain't Never Had
TTITLE8=When I Go Away
TTITLE9=Heaven's Pearls
TTITLE10=I Wish I Knew How It Would Feel to Be Free
EXTD=YEAR: 2009
EXTT0=
EXTT1=
EXTT2=
EXTT3=
EXTT4=
EXTT5=
EXTT6=
EXTT7=
EXTT8=
EXTT9=
EXTT10=
PLAYORDER=
